<svg xmlns="http://www.w3.org/2000/svg" viewBox="0 0 100 100" width="512" height="512">
  <!-- 어깨(블레이저) -->
  <path d="M17 100 Q19 73 50 73 Q81 73 83 100 Z" fill="#33405C" />
  <!-- 조끼 → 셔츠 → 넥웨어 -->
  
  <path d="M44 74 L50 85 L56 74 Z" fill="#FFFFFF" />
  
  <path d="M48.4 75 L51.6 75 L51 87 L49 87 Z" fill="#B03A3A" />
  
  <!-- 목 + 얼굴 -->
  <rect x="45" y="62" width="10" height="12" rx="4" fill="#F6D7BC" />
  <circle cx="50" cy="43" r="21" fill="#F6D7BC" />
  <path d="M28 44 Q26 18 50 17 Q74 18 72 44 L72 37 Q69 30 64 34 Q60 26 53 31 Q49 24 43 30 Q38 27 34 33 Q30 31 28 38 Z" fill="#6B4A32" />
  
  
        <path d="M38 43 h7.5" stroke="#3D2B1E" stroke-width="2" fill="none" stroke-linecap="round" />
        <path d="M54.5 43 h7.5" stroke="#3D2B1E" stroke-width="2" fill="none" stroke-linecap="round" />
        <path d="M37 36.5 q4 -3 8 -1.2" stroke="#3D2B1E" stroke-width="1.7" fill="none" stroke-linecap="round" />
        <path d="M46 54.5 h8" stroke="#3D2B1E" stroke-width="2" fill="none" stroke-linecap="round" />
      
</svg>