<svg xmlns="http://www.w3.org/2000/svg" viewBox="0 0 100 100" width="512" height="512">
  <!-- 어깨(블레이저) -->
  <path d="M17 100 Q19 73 50 73 Q81 73 83 100 Z" fill="#2F3B54" />
  <!-- 조끼 → 셔츠 → 넥웨어 -->
  
  <path d="M44 74 L50 85 L56 74 Z" fill="#FFFFFF" />
  
  <path d="M48.4 75 L51.6 75 L51 87 L49 87 Z" fill="#8A6240" />
  
  <!-- 목 + 얼굴 -->
  <rect x="45" y="62" width="10" height="12" rx="4" fill="#F2D3B3" />
  <circle cx="50" cy="43" r="21" fill="#F2D3B3" />
  <path d="M29 39 Q28 19 50 18 Q72 19 71 39 Q70 32 61 30 Q51 26 41 30 Q32 32 29 39 Z" fill="#26282E" />
  
  <g fill="rgba(255,255,255,0.25)" stroke="#3A3F4A" stroke-width="1.8">
    <rect x="35.5" y="38" width="11.5" height="8.5" rx="3.5" />
    <rect x="53" y="38" width="11.5" height="8.5" rx="3.5" />
    <line x1="47" y1="41.5" x2="53" y2="41.5" />
  </g>
  
  
        <path d="M38 43 q4 -5 8 0" stroke="#3D2B1E" stroke-width="2" fill="none" stroke-linecap="round" />
        <path d="M54 43 q4 -5 8 0" stroke="#3D2B1E" stroke-width="2" fill="none" stroke-linecap="round" />
        <path d="M44.5 52 q5.5 6 11 0" stroke="#3D2B1E" stroke-width="2" fill="none" stroke-linecap="round" />
      
</svg>