<svg xmlns="http://www.w3.org/2000/svg" viewBox="0 0 100 100" width="512" height="512">
  <!-- 어깨(블레이저) -->
  <path d="M17 100 Q19 73 50 73 Q81 73 83 100 Z" fill="#33405C" />
  <!-- 조끼 → 셔츠 → 넥웨어 -->
  <path d="M41 74 L50 90 L59 74 Z" fill="#D9C39A" />
  <path d="M44 74 L50 85 L56 74 Z" fill="#FFFFFF" />
  
  <g fill="#B03A3A">
    <path d="M50 78 L43.5 74.5 L43.5 81.5 Z" />
    <path d="M50 78 L56.5 74.5 L56.5 81.5 Z" />
    <circle cx="50" cy="78" r="1.6" />
  </g>
  
  <!-- 목 + 얼굴 -->
  <rect x="45" y="62" width="10" height="12" rx="4" fill="#F8DCC3" />
  <circle cx="50" cy="43" r="21" fill="#F8DCC3" />
  <path d="M27 54 Q24 17 50 16 Q76 17 73 54 Q73 58 68 58 L68 40 Q62 31 50 31 Q38 31 32 40 L32 58 Q27 58 27 54 Z" fill="#5E4634" />
  
  
        <circle cx="42" cy="43" r="2.2" fill="#3D2B1E" />
        <circle cx="58" cy="43" r="2.2" fill="#3D2B1E" />
        <path d="M45.5 53 q4.5 4 9 0" stroke="#3D2B1E" stroke-width="2" fill="none" stroke-linecap="round" />
      
</svg>